<?xml version="1.0"?>
<svg xmlns="http://www.w3.org/2000/svg" width="240" height="240" viewBox="52 15 220 220">
  
  <path fill="#FEFEFE" d="M144.731 76.5774L159.675 76.5193C169.219 76.4952 176.171 75.9522 184.799 80.6903C192.547 84.9445 198.291 92.0982 200.771 100.582C203.253 109.129 202.266 118.31 198.024 126.134C193.291 134.677 186.063 139.839 176.8 142.522C180.989 148.646 185.124 154.808 189.203 161.006C191.19 163.991 193.482 167.615 195.604 170.433C189.711 170.05 181.206 170.321 175.125 170.329L166.786 170.309C163.918 165.231 157.871 156.768 154.397 151.568C147.425 141.135 140.44 130.346 133.349 120.029L157.52 120.027C158.903 120.027 160.408 120.083 161.766 120.027C166.52 119.834 172.196 120.937 175.756 116.977C177.654 114.867 178.606 112.92 178.621 110.089C178.64 107.344 177.543 104.709 175.581 102.788C171.868 99.1468 165.047 100.003 160.04 100.078C159.308 98.5265 156.954 95.1667 155.889 93.5737L148.132 81.9737C147.364 80.8265 145.151 77.6803 144.731 76.5774Z"></path>
  <path fill="#FDB032" d="M104.597 76.5845C113.95 76.4125 123.557 76.5318 132.94 76.5028C133.678 77.9219 135.957 81.1276 136.912 82.547L144.788 94.2431C145.797 95.7473 147.713 98.474 148.439 99.9824C139.038 100.126 129.396 100.029 119.976 100.029C116.566 94.679 112.868 89.4437 109.394 84.1461C108.379 82.5981 105.188 78.0849 104.597 76.5845Z"></path>
  <path fill="#FDB032" d="M203.176 141.378C209.247 141.296 215.421 141.353 221.5 141.348C221.428 143.104 221.483 145.205 221.489 146.988C217.514 146.822 212.651 146.948 208.609 146.947L208.395 151.774C212.101 151.783 215.972 151.612 219.311 153.584C223.714 156.183 224.769 161.903 221.987 166.116C220.072 169.015 217.654 170.214 214.307 170.962C205.802 172.07 201.705 168.412 199.664 160.601C201.921 160.487 204.574 160.527 206.862 160.507C209.901 172.353 222.702 159.266 212.206 156.845C209.978 156.331 204.681 156.549 202.198 156.54C202.292 153.531 202.677 144.155 203.176 141.378Z"></path>
</svg>